# xmcd CD database file
#
# Track frame offsets:
#	187
#	18837
#	34362
#	45087
#	63537
#	86862
#	97662
#	121287
#	134787
#	159087
#	171612
#	195237
#	221487
#	246462
#	269487
#	283587
#	299487
#
# Disc length: 4328 seconds
#
# Revision: 0
# Processed by: cddbd v1.5.1PL2 Copyright (c) Steve Scherf et al.
# Submitted via: CDex 1.51
#
DISCID=fb10e611
DTITLE=Various Artist - URC BEST vol.1
DYEAR=1992
DGENRE=Japanese Rock
TTITLE0=はっぴいえんど／風をあつめて
TTITLE1=はっぴいえんど／12月の雨の日に
TTITLE2=五つの赤い風船／恋は風に乗って
TTITLE3=五つの赤い風船／遠い世界に
TTITLE4=早川義夫／サルビアの花
TTITLE5=早川義夫／シャンソン
TTITLE6=遠藤賢司／夜汽車のブルース
TTITLE7=金延幸子／時にまかせて
TTITLE8=溶け出したガラス箱／あんまり深すぎて
TTITLE9=休みの国／追放の歌
TTITLE10=柳田ヒロ／エマージェンシー
TTITLE11=DEW／からのベッドのブルース
TTITLE12=ザ・ディランII／プカプカ
TTITLE13=友部正人／一本道
TTITLE14=加川良／教訓1
TTITLE15=高田渡／日曜日
TTITLE16=斉藤哲夫／悩み多き者よ
EXTD=YEAR: 1992
EXTT0=
EXTT1=
EXTT2=
EXTT3=
EXTT4=
EXTT5=
EXTT6=
EXTT7=
EXTT8=
EXTT9=
EXTT10=
EXTT11=
EXTT12=
EXTT13=
EXTT14=
EXTT15=
EXTT16=
PLAYORDER=
